<?xml version="1.0" encoding="UTF-8" standalone="no"?>
<!-- Generator: Adobe Illustrator 16.0.0, SVG Export Plug-In . SVG Version: 6.00 Build 0)  -->

<svg
   xmlns:dc="http://purl.org/dc/elements/1.1/"
   xmlns:cc="http://creativecommons.org/ns#"
   xmlns:rdf="http://www.w3.org/1999/02/22-rdf-syntax-ns#"
   xmlns:svg="http://www.w3.org/2000/svg"
   xmlns="http://www.w3.org/2000/svg"
   xmlns:sodipodi="http://sodipodi.sourceforge.net/DTD/sodipodi-0.dtd"
   xmlns:inkscape="http://www.inkscape.org/namespaces/inkscape"
   version="1.1"
   id="Capa_1"
   x="0px"
   y="0px"
   width="834.277px"
   height="834.277px"
   viewBox="0 0 834.277 834.277"
   style="enable-background:new 0 0 834.277 834.277;"
   xml:space="preserve"
   sodipodi:docname="apple.svg"
   inkscape:export-filename="/Users/karelvervaeke/work/personal/machikoro/public/assets/apple.png"
   inkscape:export-xdpi="2.7616725"
   inkscape:export-ydpi="2.7616725"
   inkscape:version="0.92.2 5c3e80d, 2017-08-06"><metadata
     id="metadata43"><rdf:RDF><cc:Work
         rdf:about=""><dc:format>image/svg+xml</dc:format><dc:type
           rdf:resource="http://purl.org/dc/dcmitype/StillImage" /><dc:title></dc:title></cc:Work></rdf:RDF></metadata><defs
     id="defs41" /><sodipodi:namedview
     pagecolor="#ffffff"
     bordercolor="#666666"
     borderopacity="1"
     objecttolerance="10"
     gridtolerance="10"
     guidetolerance="10"
     inkscape:pageopacity="0"
     inkscape:pageshadow="2"
     inkscape:window-width="723"
     inkscape:window-height="480"
     id="namedview39"
     showgrid="false"
     inkscape:zoom="0.28287967"
     inkscape:cx="417.13849"
     inkscape:cy="417.13849"
     inkscape:window-x="0"
     inkscape:window-y="0"
     inkscape:window-maximized="0"
     inkscape:current-layer="g4" /><g
     id="g6"><g
       id="g4"><path
         d="m 326.253,831.194 c 28.94,11.474 64.358,-12.77 90.886,-12.77 26.528,0 64.594,18.728 85.64,12.77 C 660.601,786.513 759.19,553.29 759.19,442.168 c 0,-74.659 -23.693,-163.348 -131.914,-209.334 -96.918,-41.184 -127.087,-2.674 -187.582,5.82 -0.333,-8.656 -0.826,-17.307 -1.479,-25.949 20.434,-15.906 61.406,-41.836 126.921,-58.151 C 664.995,129.686 703.332,7.913 703.332,7.913 c 0,0 -121.669,-26.744 -196.394,18.103 -42.501,25.507 -65.042,80.093 -76.584,122.434 -5.162,-30.444 -12.346,-60.542 -21.532,-89.987 -1.635,-8.378 -3.526,-15.559 -5.716,-20.924 -15.569,-38.151 -60.24,-19.599 -60.24,0 0,13.014 7.262,19.578 15.315,26.588 10.123,31.142 17.968,62.968 23.496,95.252 0.744,4.345 1.427,8.7 2.085,13.059 0.282,1.868 0.548,3.738 0.814,5.609 0.042,0.302 0.076,0.56 0.108,0.79 0.083,0.642 0.168,1.284 0.249,1.927 1.119,8.745 2.027,17.516 2.799,26.298 0.91,10.351 1.545,20.725 1.947,31.109 C 328.261,229.126 286.663,194.694 206.94,227.025 115.922,263.937 75.088,368.137 75.088,442.17 c 0,104.959 106.37,331.617 251.165,389.024 z"
         id="path2"
         inkscape:connector-curvature="0"
         sodipodi:nodetypes="cscscccccccccscscccccccsc" /></g></g><g
     id="g8" /><g
     id="g10" /><g
     id="g12" /><g
     id="g14" /><g
     id="g16" /><g
     id="g18" /><g
     id="g20" /><g
     id="g22" /><g
     id="g24" /><g
     id="g26" /><g
     id="g28" /><g
     id="g30" /><g
     id="g32" /><g
     id="g34" /><g
     id="g36" /></svg>