<?xml version="1.0" encoding="UTF-8" standalone="no"?>
<!-- Svg Vector Icons : http://www.onlinewebfonts.com/icon -->

<svg
   xmlns:dc="http://purl.org/dc/elements/1.1/"
   xmlns:cc="http://creativecommons.org/ns#"
   xmlns:rdf="http://www.w3.org/1999/02/22-rdf-syntax-ns#"
   xmlns:svg="http://www.w3.org/2000/svg"
   xmlns="http://www.w3.org/2000/svg"
   xmlns:sodipodi="http://sodipodi.sourceforge.net/DTD/sodipodi-0.dtd"
   xmlns:inkscape="http://www.inkscape.org/namespaces/inkscape"
   version="1.1"
   x="0px"
   y="0px"
   viewBox="0 0 980.01453 591.19293"
   enable-background="new 0 0 1000 1000"
   xml:space="preserve"
   id="svg10"
   sodipodi:docname="cattle.svg"
   width="980.01453"
   height="591.19293"
   inkscape:version="0.92.2 5c3e80d, 2017-08-06"
   inkscape:export-filename="/Users/karelvervaeke/work/personal/machikoro/public/assets/cattle.png"
   inkscape:export-xdpi="2.2733696"
   inkscape:export-ydpi="2.2733696"><defs
     id="defs14" /><sodipodi:namedview
     pagecolor="#ffffff"
     bordercolor="#666666"
     borderopacity="1"
     objecttolerance="10"
     gridtolerance="10"
     guidetolerance="10"
     inkscape:pageopacity="0"
     inkscape:pageshadow="2"
     inkscape:window-width="723"
     inkscape:window-height="480"
     id="namedview12"
     showgrid="false"
     fit-margin-top="0"
     fit-margin-left="0"
     fit-margin-right="0"
     fit-margin-bottom="0"
     inkscape:zoom="0.236"
     inkscape:cx="490.01258"
     inkscape:cy="295.6"
     inkscape:window-x="0"
     inkscape:window-y="0"
     inkscape:window-maximized="0"
     inkscape:current-layer="svg10" /><metadata
     id="metadata2"> Svg Vector Icons : http://www.onlinewebfonts.com/icon <rdf:RDF><cc:Work
     rdf:about=""><dc:format>image/svg+xml</dc:format><dc:type
       rdf:resource="http://purl.org/dc/dcmitype/StillImage" /><dc:title></dc:title></cc:Work></rdf:RDF></metadata><g
     id="g8"
     transform="translate(-9.9874244,-204.40705)"><g
       transform="matrix(0.1,0,0,-0.1,0,309)"
       id="g6"><path
         d="M 8324.8,1007.5 C 8230.9,982.6 8116,946.2 8071.9,929 l -82.4,-32.6 -80.5,59.4 c -65.1,47.9 -97.7,59.4 -180.1,59.4 -130.3,0 -168.6,-34.5 -155.2,-141.8 5.7,-44.1 15.3,-92 21.1,-109.2 9.6,-23 -9.6,-36.4 -88.1,-59.4 -270.1,-84.3 -605.3,-95.8 -1001.9,-32.6 -421.4,65.1 -795,69 -1254.8,9.6 -546,-67.1 -858.2,-88.1 -1381.2,-88.1 -488.5,0 -789.2,19.2 -1281.6,78.5 -490.4,59.4 -766.3,74.7 -1013.4,53.6 C 1242.4,699 983.8,618.5 832.4,492.1 801.7,467.2 729,425 671.5,398.2 531.8,335.1 461,271.9 397.7,155.1 298.1,-25 288.5,-128.5 288.5,-988.6 v -787.3 l -46,-42.1 c -72.8,-67.1 -130.3,-226 -141.8,-375.5 -7.7,-132.2 40.2,-482.7 70.9,-513.4 26.8,-26.8 208.8,174.3 273.9,306.5 53.6,109.2 65.1,155.2 70.9,289.3 5.8,141.8 0,170.5 -46,264.4 l -51.7,105.4 9.6,645.6 c 9.6,645.6 32.6,883.1 92,954 30.6,36.4 55.6,15.3 55.6,-47.9 0,-30.7 21.1,-157.1 47.9,-285.4 80.5,-400.4 111.1,-666.7 111.1,-1000 0,-440.6 -44.1,-676.2 -185.8,-1005.7 -26.8,-63.2 -49.8,-132.2 -49.8,-155.2 0,-21.1 26.8,-111.1 57.5,-197.3 124.5,-341 272,-927.2 304.6,-1218.4 32.6,-275.8 38.3,-291.2 118.8,-385 74.7,-86.2 74.7,-88.1 72.8,-241.4 -1.9,-84.3 5.8,-160.9 15.3,-170.5 9.6,-9.6 172.4,-15.3 375.5,-13.4 l 356.3,5.7 -76.6,162.8 c -63.2,136 -103.4,187.8 -239.5,319.9 -90,88.1 -174.3,187.7 -189.7,224.1 -38.3,92 -70.9,383.1 -74.7,662.8 -1.9,214.6 1.9,249 44.1,341 l 46,101.5 162.8,-273.9 c 249,-421.4 362.1,-649.4 377.4,-766.3 17.2,-139.9 74.7,-252.9 164.8,-323.8 105.4,-84.3 139.8,-155.2 124.5,-266.3 -7.7,-49.8 -3.8,-113 7.7,-141.7 l 19.2,-49.8 h 354.4 c 243.3,0 354.4,5.8 354.4,21.1 0,11.5 -40.2,97.7 -90,193.5 -90,176.2 -118.8,205 -314.2,321.8 -67.1,42.2 -91.9,76.6 -180.1,258.6 -174.3,360.2 -277.8,758.6 -277.8,1065.1 0,116.9 3.8,128.3 44.1,139.8 92,24.9 122.6,13.4 139.8,-49.8 32.6,-109.2 153.3,-84.3 137.9,26.8 -7.7,51.7 -3.8,55.5 65.1,61.3 13.4,1.9 28.7,-19.2 34.5,-44.1 13.4,-55.5 59.4,-88.1 103.4,-72.8 21.1,7.7 30.7,34.5 30.7,86.2 v 72.8 l 132.2,42.1 c 72.8,24.9 182,69 241.4,97.7 l 109.2,55.6 109.2,-38.3 c 362.1,-124.5 781.6,-205 1160.9,-220.3 249,-9.6 335.2,-3.8 651.3,42.1 394.6,57.5 578.5,57.5 741.4,0 l 90,-30.6 11.5,-128.3 c 5.7,-70.9 24.9,-176.3 40.2,-233.7 17.2,-57.5 47.9,-164.7 69,-239.5 28.7,-105.4 40.2,-220.3 49.8,-530.6 13.4,-392.7 13.4,-396.6 63.2,-450.2 82.4,-88.1 99.6,-134.1 84.3,-245.2 -5.7,-55.5 -5.7,-122.6 1.9,-151.3 l 11.5,-49.8 H 6459 c 247.1,0 323.8,5.8 323.8,24.9 0,59.4 -120.7,266.3 -229.9,396.5 -136,162.8 -191.6,262.5 -191.6,339.1 0,109.2 141.8,812.2 157.1,783.5 9.6,-15.3 42.1,-126.5 74.7,-245.2 44.1,-164.7 61.3,-279.7 70.9,-478.9 l 15.3,-264.4 69,-70.9 c 99.6,-105.4 111.1,-137.9 111.1,-319.9 V -4866 h 342.9 342.9 l -36.4,97.7 c -61.3,162.8 -113,249 -237.6,409.9 -67,84.3 -151.3,210.7 -189.7,279.7 -63.2,114.9 -69,139.8 -69,277.8 0,82.4 21.1,312.3 47.9,511.5 l 47.9,360.1 101.5,99.6 c 120.7,118.8 180.1,229.9 348.7,645.6 147.5,367.8 250.9,567.1 432.9,833.3 191.6,281.6 337.2,450.2 388.9,450.2 23,0 118.8,-24.9 210.7,-57.5 180.1,-59.4 496.2,-134.1 576.6,-134.1 74.7,0 159,49.8 281.6,168.6 137.9,130.3 141.8,166.7 36.4,400.4 -74.7,166.7 -97.7,260.5 -136,590 -9.6,95.8 -24.9,191.6 -30.6,214.6 -11.5,38.3 -3.8,42.1 105.4,55.6 128.3,13.4 273.9,95.8 413.8,231.8 84.3,80.5 82.4,132.2 -5.8,191.6 -153.3,101.5 -350.6,99.6 -578.5,-5.8 l -103.4,-47.9 -38.3,53.6 c -185.9,264.5 -433,341.1 -787.4,247.2 z"
         id="path4"
         inkscape:connector-curvature="0" /></g></g></svg>