<?xml version="1.0" encoding="UTF-8" standalone="no"?>
<!-- Generator: Adobe Illustrator 18.1.1, SVG Export Plug-In . SVG Version: 6.00 Build 0)  -->

<svg
   xmlns:dc="http://purl.org/dc/elements/1.1/"
   xmlns:cc="http://creativecommons.org/ns#"
   xmlns:rdf="http://www.w3.org/1999/02/22-rdf-syntax-ns#"
   xmlns:svg="http://www.w3.org/2000/svg"
   xmlns="http://www.w3.org/2000/svg"
   xmlns:sodipodi="http://sodipodi.sourceforge.net/DTD/sodipodi-0.dtd"
   xmlns:inkscape="http://www.inkscape.org/namespaces/inkscape"
   version="1.1"
   id="Capa_1"
   x="0px"
   y="0px"
   viewBox="0 0 314.778 242.57499"
   xml:space="preserve"
   sodipodi:docname="coffee.svg"
   inkscape:version="0.92.2 5c3e80d, 2017-08-06"
   inkscape:export-filename="/Users/karelvervaeke/work/personal/machikoro/public/assets/coffee.png"
   inkscape:export-xdpi="7.3200002"
   inkscape:export-ydpi="7.3200002"
   width="314.77802"
   height="242.575"><metadata
     id="metadata54"><rdf:RDF><cc:Work
         rdf:about=""><dc:format>image/svg+xml</dc:format><dc:type
           rdf:resource="http://purl.org/dc/dcmitype/StillImage" /><dc:title></dc:title></cc:Work></rdf:RDF></metadata><defs
     id="defs52" /><sodipodi:namedview
     pagecolor="#ffffff"
     bordercolor="#666666"
     borderopacity="1"
     objecttolerance="10"
     gridtolerance="10"
     guidetolerance="10"
     inkscape:pageopacity="0"
     inkscape:pageshadow="2"
     inkscape:window-width="723"
     inkscape:window-height="480"
     id="namedview50"
     showgrid="false"
     inkscape:zoom="0.6904986"
     inkscape:cx="155.94078"
     inkscape:cy="130.34059"
     inkscape:window-x="0"
     inkscape:window-y="0"
     inkscape:window-maximized="0"
     inkscape:current-layer="g14"
     fit-margin-top="0"
     fit-margin-left="0"
     fit-margin-right="0"
     fit-margin-bottom="0" /><g
     id="g17"
     transform="translate(-14.950229,-58.656592)"><g
       id="Layer_5_46_"><g
         id="g14"><path
           d="m 282.69723,73.852592 c -2.682,0 -5.309,0.232 -7.868,0.67 -0.986,0.168 -2.926,0.617 -2.926,-1.799 v -6.746 c 0,0 0,-7.321 -6.734,-7.321 -61.625,0 -183.192001,0 -246.501001,0 -3.718,0 -3.718,3.646 -3.718,3.646 v 87.216998 c 0,58.697 47.584,106.281 106.281001,106.281 h 44.389 c 46.216,0 84.403,-26.465 99.038,-67.662 1.177,-3.08 3.525,-2.167 4.752,-1.804 4.215,1.247 8.672,1.922 13.286,1.922 25.934,0 47.032,-21.099 47.032,-47.031 v -20.341 c 10e-4,-25.933998 -21.097,-47.031998 -47.031,-47.031998 z m 27.032,67.371998 c 0,14.905 -12.126,27.031 -27.032,27.031 -2.844,0 -5.585,-0.443 -8.161,-1.263 -1.32,-0.42 -4.034,-0.52 -3.822,-4.397 0.781,-5.196 1.188,-7.664 1.188,-13.077 V 98.473592 c 0,-2.5 1.645,-3.037 2.496,-3.313 2.616,-0.848 5.404,-1.309 8.299,-1.309 14.905,0 27.032,12.125998 27.032,27.030998 z"
           id="path2"
           inkscape:connector-curvature="0" /><path
           d="m 266.27123,294.23159 c 0,3.85 -3.15,7 -7,7 H 35.088229 c -3.85,0 -7,-3.15 -7,-7 v -17.259 c 0,-3.851 3.15,-7 7,-7 H 259.27123 c 3.85,0 7,3.149 7,7 z"
           id="path4"
           inkscape:connector-curvature="0" /></g></g></g><g
     id="g19"
     transform="translate(-14.950229,-58.656592)" /><g
     id="g21"
     transform="translate(-14.950229,-58.656592)" /><g
     id="g23"
     transform="translate(-14.950229,-58.656592)" /><g
     id="g25"
     transform="translate(-14.950229,-58.656592)" /><g
     id="g27"
     transform="translate(-14.950229,-58.656592)" /><g
     id="g29"
     transform="translate(-14.950229,-58.656592)" /><g
     id="g31"
     transform="translate(-14.950229,-58.656592)" /><g
     id="g33"
     transform="translate(-14.950229,-58.656592)" /><g
     id="g35"
     transform="translate(-14.950229,-58.656592)" /><g
     id="g37"
     transform="translate(-14.950229,-58.656592)" /><g
     id="g39"
     transform="translate(-14.950229,-58.656592)" /><g
     id="g41"
     transform="translate(-14.950229,-58.656592)" /><g
     id="g43"
     transform="translate(-14.950229,-58.656592)" /><g
     id="g45"
     transform="translate(-14.950229,-58.656592)" /><g
     id="g47"
     transform="translate(-14.950229,-58.656592)" /></svg>