<?xml version="1.0" encoding="UTF-8" standalone="no"?>
<svg
   xmlns:dc="http://purl.org/dc/elements/1.1/"
   xmlns:cc="http://creativecommons.org/ns#"
   xmlns:rdf="http://www.w3.org/1999/02/22-rdf-syntax-ns#"
   xmlns:svg="http://www.w3.org/2000/svg"
   xmlns="http://www.w3.org/2000/svg"
   xmlns:sodipodi="http://sodipodi.sourceforge.net/DTD/sodipodi-0.dtd"
   xmlns:inkscape="http://www.inkscape.org/namespaces/inkscape"
   version="1.1"
   id="Layer_1"
   x="0px"
   y="0px"
   viewBox="27.64 9.1254 920.083 513.58955"
   enable-background="new 27.64 9.1254 1056.9442 1389.4147"
   xml:space="preserve"
   sodipodi:docname="giving.svg"
   width="920.08301"
   height="513.58954"
   inkscape:version="0.92.2 5c3e80d, 2017-08-06"><metadata
     id="metadata11"><rdf:RDF><cc:Work
         rdf:about=""><dc:format>image/svg+xml</dc:format><dc:type
           rdf:resource="http://purl.org/dc/dcmitype/StillImage" /><dc:title></dc:title></cc:Work></rdf:RDF></metadata><defs
     id="defs9" /><sodipodi:namedview
     pagecolor="#ffffff"
     bordercolor="#666666"
     borderopacity="1"
     objecttolerance="10"
     gridtolerance="10"
     guidetolerance="10"
     inkscape:pageopacity="0"
     inkscape:pageshadow="2"
     inkscape:window-width="723"
     inkscape:window-height="480"
     id="namedview7"
     showgrid="false"
     fit-margin-top="0"
     fit-margin-left="0"
     fit-margin-right="0"
     fit-margin-bottom="0"
     inkscape:zoom="0.1698557"
     inkscape:cx="528.47211"
     inkscape:cy="-155.94274"
     inkscape:window-x="0"
     inkscape:window-y="0"
     inkscape:window-maximized="0"
     inkscape:current-layer="Layer_1" /><path
     d="m 436.95,10.034941 c 63.39,-2.6300001 126.84,0.85 190.07,5.25 7.54,0.29 14.79,2.55 22.01,4.56 12.08,3.78 24.3,9.6 31.8199,20.21 31.06,-1.48 62.23,-3.88 93.31,-1.39 14.91,1.05 29.89,0.97 44.81,0.17 3.42,-0.01 6.58,-1.47 9.9301,-1.96 10.2,-1.59 20.63,-0.43 30.59,2.08 0.13,2.48 2.83,3.42 4.02,5.32 4.67,6.02 3.41,14.64 -0.4,20.76 -6.61,10.85 -18.04,17.47 -29.26,22.69 26.56,12.439999 53.96,23.209999 79.62,37.489999 11.1,0.17 23.04,3.26 31,11.41 -0.4,0.4 -1.18,1.2 -1.58,1.61 3.56,6.31 6.56,14.1 3.68,21.25 -2.98,7.51 -10.69,11.55 -17.9,14.1 -9.58,3.13 -19.66,4.72 -29.72,5.04 -14.1,-0.46 -26.86,-7.42 -38.84,-14.21 -1.86,-1.06 -4.11,-0.49 -6.13,-0.66 -23.22,-0.79 -45.81,-7.61 -66.99,-16.87 -5.16,0.8 -10.36,1.31 -15.54,1.88 5.47,7.7 10.91,15.73 13.38,24.96 1.12,3.93 1.11,8.15 -0.19,12.03 -3.78,12.77 -11.71,23.7 -18.91,34.72 -7.01,10.48 -13.99,21.02 -19.85,32.21 -8.76,16.23 -22.05,29.24 -33.63,43.39 -1.6,2.12 -3.92,3.96 -4.31,6.74 -2.18,9.69 -5.34,19.44 -11.28,27.53 -2.16,2.74 -4.47,5.54 -7.58,7.2 -0.51,-0.31 -1.52,-0.92 -2.02,-1.23 -2.3,2.24 -5.58,1.88 -8.43,1.2 -1.24,8.48 -9.39,13.62 -16.77,16.43 -9.21,3.84 -19.25,1.3 -28.86,1.61 -9.44,5.62 -19.81,10.69 -31.06,10.61 -8.28,0.28 -15.93,-3.49 -22.93,-7.49 -12.57,-7.36 -24.12,-16.3 -35.48,-25.37 -20.55,-16.67 -40.23,-34.38 -59.7,-52.29 -1.31,-1.3 -3.2,-1.54 -4.87,-2.08 -22,-6.09 -43.95,-13.1 -64.08,-24.03 -19.67,-10.57 -37.22,-24.75 -52.7,-40.78 -9.76,1.48 -18.98,5.33 -27.36,10.45 1.23,7.71 2.44,15.43 3.84,23.12 -22.79,14.01 -45.61,27.97 -68.35,42.05 1.23,5.17 2.23,10.4 3.34,15.6 -81.88,72.59 -164.06,144.83 -245.97,217.37 0.01,-131.16 0.1,-262.33 -0.04,-393.49 C 99.6,87.144941 178.02,57.204941 257.9,33.964941 c 0.29,0.64 0.87,1.93 1.16,2.57 12.04,-3.48 24.09,-6.93 36.11,-10.49 0.62,1.27 1.22,2.56 1.79,3.86 45.74,-11.83 92.85,-17.7 139.99,-19.87 M 602.63,171.44494 c -6.31,13.81 -8.85,29.27 -7.98,44.39 1.86,6.66 4.31,13.15 6.37,19.76 15.68,11.53 23.91,29.78 32.1,46.82 6.71,-2.21 13.59,0.47 20.02,2.35 -0.42,-10.08 1.37,-20.25 5.31,-29.54 2.16,-4.85 4.91,-9.83 9.68,-12.54 -0.95,-6.74 -1.3,-13.72 0.56,-20.34 2.34,-9.17 8.59,-16.83 15.93,-22.57 -13.1,-3.72 -19.22,-17.58 -21.5,-29.89 -16.56,-0.1 -32.67,-6.84 -44.95,-17.83 -7.13,4.59 -12.04,11.82 -15.54,19.39 z"
     id="path2"
     inkscape:connector-curvature="0" /></svg>