<?xml version="1.0" encoding="UTF-8" standalone="no"?>
<!-- Generator: Adobe Illustrator 18.0.0, SVG Export Plug-In . SVG Version: 6.00 Build 0)  -->

<svg
   xmlns:dc="http://purl.org/dc/elements/1.1/"
   xmlns:cc="http://creativecommons.org/ns#"
   xmlns:rdf="http://www.w3.org/1999/02/22-rdf-syntax-ns#"
   xmlns:svg="http://www.w3.org/2000/svg"
   xmlns="http://www.w3.org/2000/svg"
   xmlns:sodipodi="http://sodipodi.sourceforge.net/DTD/sodipodi-0.dtd"
   xmlns:inkscape="http://www.inkscape.org/namespaces/inkscape"
   version="1.1"
   id="Layer_1"
   x="0px"
   y="0px"
   viewBox="0 0 74.009018 70"
   enable-background="new 0 0 90 92"
   xml:space="preserve"
   sodipodi:docname="house.svg"
   inkscape:version="0.92.2 5c3e80d, 2017-08-06"
   width="74.009018"
   height="70"
   inkscape:export-filename="/Users/karelvervaeke/work/personal/machikoro/public/assets/house.png"
   inkscape:export-xdpi="31.542856"
   inkscape:export-ydpi="31.542856"><metadata
     id="metadata93"><rdf:RDF><cc:Work
         rdf:about=""><dc:format>image/svg+xml</dc:format><dc:type
           rdf:resource="http://purl.org/dc/dcmitype/StillImage" /><dc:title></dc:title></cc:Work></rdf:RDF></metadata><defs
     id="defs91" /><sodipodi:namedview
     pagecolor="#ffffff"
     bordercolor="#666666"
     borderopacity="0"
     objecttolerance="10"
     gridtolerance="10"
     guidetolerance="10"
     inkscape:pageopacity="0"
     inkscape:pageshadow="2"
     inkscape:window-width="738"
     inkscape:window-height="480"
     id="namedview89"
     showgrid="false"
     inkscape:zoom="2.5652174"
     inkscape:cx="-29.846915"
     inkscape:cy="34"
     inkscape:window-x="0"
     inkscape:window-y="0"
     inkscape:window-maximized="0"
     inkscape:current-layer="g86"
     scale-x="1"
     fit-margin-top="0"
     fit-margin-left="0"
     fit-margin-right="0"
     fit-margin-bottom="0" /><g
     id="g86"
     transform="translate(-7.990983,-10)"><g
       id="g4"
       style="fill:#000000;fill-opacity:1;stroke:none;stroke-opacity:1"><path
         d="m 81,33 c 0,0 0,0 0,0 H 9 C 8.7,33 8.4,32.8 8.2,32.6 8,32.3 7.9,32 8.1,31.6 l 8,-21 C 16.2,10.2 16.6,10 17,10 h 56 c 0.4,0 0.8,0.3 0.9,0.6 l 7.9,20.8 c 0.2,0.2 0.2,0.4 0.2,0.6 0,0.6 -0.4,1 -1,1 z M 10.5,31 H 79.6 L 72.4,12 H 17.7 Z"
         id="path2"
         style="fill:#000000;fill-opacity:1;stroke:none;stroke-opacity:1"
         inkscape:connector-curvature="0" /></g><g
       id="g8"
       style="fill:#000000;fill-opacity:1;stroke:none;stroke-opacity:1"><polygon
         points="33,11 24,11 19,32 31,32 "
         id="polygon6"
         style="fill:#000000;fill-opacity:1;stroke:none;stroke-opacity:1" /></g><g
       id="g12"
       style="fill:#000000;fill-opacity:1;stroke:none;stroke-opacity:1"><polygon
         points="57,11 66,11 71,32 59,32 "
         id="polygon10"
         style="fill:#000000;fill-opacity:1;stroke:none;stroke-opacity:1" /></g><g
       id="g16"
       style="fill:#000000;fill-opacity:1;stroke:none;stroke-opacity:1"><rect
         x="40"
         y="11"
         width="10"
         height="21"
         id="rect14"
         style="fill:#000000;fill-opacity:1;stroke:none;stroke-opacity:1" /></g><g
       id="g20"
       style="fill:#000000;fill-opacity:1;stroke:none;stroke-opacity:1"><path
         d="M 14,42 C 10.7,42 8,39.3 8,36 v -4 c 0,-0.6 0.4,-1 1,-1 h 10 c 0.6,0 1,0.4 1,1 v 4 c 0,3.3 -2.7,6 -6,6 z m -4,-9 v 3 c 0,2.2 1.8,4 4,4 2.2,0 4,-1.8 4,-4 v -3 z"
         id="path18"
         style="fill:#000000;fill-opacity:1;stroke:none;stroke-opacity:1"
         inkscape:connector-curvature="0" /></g><g
       id="g24"
       style="fill:#000000;fill-opacity:1;stroke:none;stroke-opacity:1"><path
         d="m 35,42 c -3.3,0 -6,-2.7 -6,-6 v -4 c 0,-0.6 0.4,-1 1,-1 h 10 c 0.6,0 1,0.4 1,1 v 4 c 0,3.3 -2.7,6 -6,6 z m -4,-9 v 3 c 0,2.2 1.8,4 4,4 2.2,0 4,-1.8 4,-4 v -3 z"
         id="path22"
         style="fill:#000000;fill-opacity:1;stroke:none;stroke-opacity:1"
         inkscape:connector-curvature="0" /></g><g
       id="g28"
       style="fill:#000000;fill-opacity:1;stroke:none;stroke-opacity:1"><path
         d="m 20,33 v 4 c 0,2.8 2.2,5 5,5 v 0 c 2.8,0 5,-2.2 5,-5 v -4 z"
         id="path26"
         style="fill:#000000;fill-opacity:1;stroke:none;stroke-opacity:1"
         inkscape:connector-curvature="0" /></g><g
       id="g32"
       style="fill:#000000;fill-opacity:1;stroke:none;stroke-opacity:1"><path
         d="m 40,33 v 4 c 0,2.8 2.2,5 5,5 v 0 c 2.8,0 5,-2.2 5,-5 v -4 z"
         id="path30"
         style="fill:#000000;fill-opacity:1;stroke:none;stroke-opacity:1"
         inkscape:connector-curvature="0" /></g><g
       id="g36"
       style="fill:#000000;fill-opacity:1;stroke:none;stroke-opacity:1"><path
         d="m 61,33 v 4 c 0,2.8 2.2,5 5,5 v 0 c 2.8,0 5,-2.2 5,-5 v -4 z"
         id="path34"
         style="fill:#000000;fill-opacity:1;stroke:none;stroke-opacity:1"
         inkscape:connector-curvature="0" /></g><g
       id="g40"
       style="fill:#000000;fill-opacity:1;stroke:none;stroke-opacity:1"><path
         d="m 55,42 c -3.3,0 -6,-2.7 -6,-6 v -4 c 0,-0.6 0.4,-1 1,-1 h 10 c 0.6,0 1,0.4 1,1 v 4 c 0,3.3 -2.7,6 -6,6 z m -4,-9 v 3 c 0,2.2 1.8,4 4,4 2.2,0 4,-1.8 4,-4 v -3 z"
         id="path38"
         style="fill:#000000;fill-opacity:1;stroke:none;stroke-opacity:1"
         inkscape:connector-curvature="0" /></g><g
       id="g44"
       style="fill:#000000;fill-opacity:1;stroke:none;stroke-opacity:1"><path
         d="m 76,42 c -3.3,0 -6,-2.7 -6,-6 v -4 c 0,-0.6 0.4,-1 1,-1 h 10 c 0.6,0 1,0.4 1,1 v 4 c 0,3.3 -2.7,6 -6,6 z m -4,-9 v 3 c 0,2.2 1.8,4 4,4 2.2,0 4,-1.8 4,-4 v -3 z"
         id="path42"
         style="fill:#000000;fill-opacity:1;stroke:none;stroke-opacity:1"
         inkscape:connector-curvature="0" /></g><g
       id="g48"
       style="fill:#000000;fill-opacity:1;stroke:none;stroke-opacity:1"><path
         d="M 76,80 H 14 c -0.6,0 -1,-0.4 -1,-1 V 41 c 0,-0.6 0.4,-1 1,-1 0.6,0 1,0.4 1,1 V 78 H 75 V 41 c 0,-0.6 0.4,-1 1,-1 0.6,0 1,0.4 1,1 v 38 c 0,0.6 -0.4,1 -1,1 z"
         id="path46"
         style="fill:#000000;fill-opacity:1;stroke:none;stroke-opacity:1"
         inkscape:connector-curvature="0" /></g><g
       id="g80"
       transform="matrix(27.70339,0,0,1.6334746,-1201.8475,-9.3983)"
       style="fill:#000000;fill-opacity:1;stroke:none;stroke-opacity:1"><path
         d="m 45,52 c -0.6,0 -1,-0.4 -1,-1 v -6 c 0,-0.6 0.4,-1 1,-1 0.6,0 1,0.4 1,1 v 6 c 0,0.6 -0.4,1 -1,1 z"
         id="path78"
         inkscape:connector-curvature="0"
         style="fill:#000000;fill-opacity:1;stroke:none;stroke-opacity:1" /></g><g
       style="fill:#000000;fill-opacity:1;stroke:none;stroke-opacity:1"
       id="g4591"><path
         style="fill:#000000;fill-opacity:1;stroke:none;stroke-opacity:1"
         id="path4589"
         d="m 81,33 c 0,0 0,0 0,0 H 9 C 8.7,33 8.4,32.8 8.2,32.6 8,32.3 7.9,32 8.1,31.6 l 8,-21 C 16.2,10.2 16.6,10 17,10 h 56 c 0.4,0 0.8,0.3 0.9,0.6 l 7.9,20.8 c 0.2,0.2 0.2,0.4 0.2,0.6 0,0.6 -0.4,1 -1,1 z M 10.5,31 H 79.6 L 72.4,12 H 17.7 Z"
         inkscape:connector-curvature="0" /></g><g
       style="fill:#000000;fill-opacity:1;stroke:none;stroke-opacity:1"
       id="g4595"><polygon
         style="fill:#000000;fill-opacity:1;stroke:none;stroke-opacity:1"
         id="polygon4593"
         points="33,11 24,11 19,32 31,32 " /></g><g
       style="fill:#000000;fill-opacity:1;stroke:none;stroke-opacity:1"
       id="g4599"><polygon
         style="fill:#000000;fill-opacity:1;stroke:none;stroke-opacity:1"
         id="polygon4597"
         points="57,11 66,11 71,32 59,32 " /></g><g
       style="fill:#000000;fill-opacity:1;stroke:none;stroke-opacity:1"
       id="g4603"><rect
         style="fill:#000000;fill-opacity:1;stroke:none;stroke-opacity:1"
         id="rect4601"
         height="21"
         width="10"
         y="11"
         x="40" /></g><g
       style="fill:#000000;fill-opacity:1;stroke:none;stroke-opacity:1"
       id="g4607"><path
         style="fill:#000000;fill-opacity:1;stroke:none;stroke-opacity:1"
         id="path4605"
         d="M 14,42 C 10.7,42 8,39.3 8,36 v -4 c 0,-0.6 0.4,-1 1,-1 h 10 c 0.6,0 1,0.4 1,1 v 4 c 0,3.3 -2.7,6 -6,6 z m -4,-9 v 3 c 0,2.2 1.8,4 4,4 2.2,0 4,-1.8 4,-4 v -3 z"
         inkscape:connector-curvature="0" /></g><g
       style="fill:#000000;fill-opacity:1;stroke:none;stroke-opacity:1"
       id="g4611"><path
         style="fill:#000000;fill-opacity:1;stroke:none;stroke-opacity:1"
         id="path4609"
         d="m 35,42 c -3.3,0 -6,-2.7 -6,-6 v -4 c 0,-0.6 0.4,-1 1,-1 h 10 c 0.6,0 1,0.4 1,1 v 4 c 0,3.3 -2.7,6 -6,6 z m -4,-9 v 3 c 0,2.2 1.8,4 4,4 2.2,0 4,-1.8 4,-4 v -3 z"
         inkscape:connector-curvature="0" /></g><g
       style="fill:#000000;fill-opacity:1;stroke:none;stroke-opacity:1"
       id="g4615"><path
         style="fill:#000000;fill-opacity:1;stroke:none;stroke-opacity:1"
         id="path4613"
         d="m 20,33 v 4 c 0,2.8 2.2,5 5,5 v 0 c 2.8,0 5,-2.2 5,-5 v -4 z"
         inkscape:connector-curvature="0" /></g><g
       style="fill:#000000;fill-opacity:1;stroke:none;stroke-opacity:1"
       id="g4619"><path
         style="fill:#000000;fill-opacity:1;stroke:none;stroke-opacity:1"
         id="path4617"
         d="m 40,33 v 4 c 0,2.8 2.2,5 5,5 v 0 c 2.8,0 5,-2.2 5,-5 v -4 z"
         inkscape:connector-curvature="0" /></g><g
       style="fill:#000000;fill-opacity:1;stroke:none;stroke-opacity:1"
       id="g4623"><path
         style="fill:#000000;fill-opacity:1;stroke:none;stroke-opacity:1"
         id="path4621"
         d="m 61,33 v 4 c 0,2.8 2.2,5 5,5 v 0 c 2.8,0 5,-2.2 5,-5 v -4 z"
         inkscape:connector-curvature="0" /></g><g
       style="fill:#000000;fill-opacity:1;stroke:none;stroke-opacity:1"
       id="g4627"><path
         style="fill:#000000;fill-opacity:1;stroke:none;stroke-opacity:1"
         id="path4625"
         d="m 55,42 c -3.3,0 -6,-2.7 -6,-6 v -4 c 0,-0.6 0.4,-1 1,-1 h 10 c 0.6,0 1,0.4 1,1 v 4 c 0,3.3 -2.7,6 -6,6 z m -4,-9 v 3 c 0,2.2 1.8,4 4,4 2.2,0 4,-1.8 4,-4 v -3 z"
         inkscape:connector-curvature="0" /></g><g
       style="fill:#000000;fill-opacity:1;stroke:none;stroke-opacity:1"
       id="g4631"><path
         style="fill:#000000;fill-opacity:1;stroke:none;stroke-opacity:1"
         id="path4629"
         d="m 76,42 c -3.3,0 -6,-2.7 -6,-6 v -4 c 0,-0.6 0.4,-1 1,-1 h 10 c 0.6,0 1,0.4 1,1 v 4 c 0,3.3 -2.7,6 -6,6 z m -4,-9 v 3 c 0,2.2 1.8,4 4,4 2.2,0 4,-1.8 4,-4 v -3 z"
         inkscape:connector-curvature="0" /></g><g
       style="fill:#000000;fill-opacity:1;stroke:none;stroke-opacity:1"
       id="g4635"><path
         style="fill:#000000;fill-opacity:1;stroke:none;stroke-opacity:1"
         id="path4633"
         d="M 76,80 H 14 c -0.6,0 -1,-0.4 -1,-1 V 41 c 0,-0.6 0.4,-1 1,-1 0.6,0 1,0.4 1,1 V 78 H 75 V 41 c 0,-0.6 0.4,-1 1,-1 0.6,0 1,0.4 1,1 v 38 c 0,0.6 -0.4,1 -1,1 z"
         inkscape:connector-curvature="0" /></g><g
       style="fill:#000000;fill-opacity:1;stroke:none;stroke-opacity:1"
       transform="matrix(27.70339,0,0,1.6334746,-1201.8475,-9.3983)"
       id="g4639"><path
         style="fill:#000000;fill-opacity:1;stroke:none;stroke-opacity:1"
         inkscape:connector-curvature="0"
         id="path4637"
         d="m 45,52 c -0.6,0 -1,-0.4 -1,-1 v -6 c 0,-0.6 0.4,-1 1,-1 0.6,0 1,0.4 1,1 v 6 c 0,0.6 -0.4,1 -1,1 z" /></g></g></svg>