<?xml version="1.0" encoding="UTF-8" standalone="no"?>
<svg
   xmlns:dc="http://purl.org/dc/elements/1.1/"
   xmlns:cc="http://creativecommons.org/ns#"
   xmlns:rdf="http://www.w3.org/1999/02/22-rdf-syntax-ns#"
   xmlns:svg="http://www.w3.org/2000/svg"
   xmlns="http://www.w3.org/2000/svg"
   xmlns:sodipodi="http://sodipodi.sourceforge.net/DTD/sodipodi-0.dtd"
   xmlns:inkscape="http://www.inkscape.org/namespaces/inkscape"
   version="1.1"
   id="Layer_1"
   x="0px"
   y="0px"
   viewBox="27.64 9.1254 844.72631 344.37461"
   enable-background="new 27.64 9.1254 1056.9442 1389.4147"
   xml:space="preserve"
   sodipodi:docname="receiving.svg"
   width="844.72632"
   height="344.3746"
   inkscape:version="0.92.2 5c3e80d, 2017-08-06"><metadata
     id="metadata11"><rdf:RDF><cc:Work
         rdf:about=""><dc:format>image/svg+xml</dc:format><dc:type
           rdf:resource="http://purl.org/dc/dcmitype/StillImage" /><dc:title></dc:title></cc:Work></rdf:RDF></metadata><defs
     id="defs9" /><sodipodi:namedview
     pagecolor="#ffffff"
     bordercolor="#666666"
     borderopacity="1"
     objecttolerance="10"
     gridtolerance="10"
     guidetolerance="10"
     inkscape:pageopacity="0"
     inkscape:pageshadow="2"
     inkscape:window-width="640"
     inkscape:window-height="480"
     id="namedview7"
     showgrid="false"
     fit-margin-top="0"
     fit-margin-left="0"
     fit-margin-right="0"
     fit-margin-bottom="0"
     inkscape:zoom="0.46927737"
     inkscape:cx="565.97988"
     inkscape:cy="39.603781"
     inkscape:window-x="0"
     inkscape:window-y="0"
     inkscape:window-maximized="0"
     inkscape:current-layer="Layer_1" /><path
     d="m 161.61818,187.34749 c 1.9341,-19.59246 14.9879,-37.01583 31.7573,-46.73466 19.01534,-10.96041 38.46107,-21.44546 59.22047,-28.7443 13.09855,-4.66702 26.80215,-7.56531 40.67331,-8.53775 25.86584,-8.097598 51.63226,-16.576398 77.48571,-24.753668 1.4578,-0.49773 3.06842,-0.83595 4.27555,-1.88845 28.82587,-24.22313 61.11262,-45.11807 97.01491,-57.10296 26.76029,-8.96462 55.43094,-12.4559399 83.50825,-9.34656 22.21878,2.30789 43.94026,8.46633 64.44932,17.24212 2.85958,1.14725 5.60114,2.83609 8.74921,3.12627 36.55636,5.03123 72.60347,13.64114 107.51361,25.58853 43.06181,14.62929 92.94386,35.82671 134.56241,53.986638 1.0914,138.36665 0.35446,25.76012 1.53809,243.31731 -55.39859,-36.15972 -140.63095,-72.85817 -152.60623,-78.69389 -15.82597,-10.61838 -35.34571,-15.04381 -53.5504,-21.02713 -7.83644,-2.51123 -16.18814,-3.98463 -24.40604,-2.78874 -43.90244,4.73034 -86.49912,17.27128 -128.03965,31.80966 -33.8046,11.74408 -67.22963,24.60542 -101.40745,35.24023 -10.1118,3.03915 -20.18391,6.73742 -30.83874,7.20363 -24.35586,1.5076 -48.61562,-2.07594 -72.88297,-3.56832 -7.64728,-0.39793 -15.32829,-1.25507 -22.96022,-0.33487 -21.01931,2.1463 -41.52607,7.45271 -62.33012,10.91117 -19.66861,3.42255 -39.67805,3.7399 -59.57428,4.63212 -27.47519,0.77237 -55.06895,1.46025 -82.474169,-0.91887 -14.517447,6.40014 -31.105704,9.38656 -46.60284,4.88909 -0.02773,-1.3978 -0.0071,-2.78303 0.04171,-4.1651 -5.801082,-6.18162 -8.671523,-15.19996 -6.211228,-23.46908 3.743894,-12.65738 14.36559,-21.8725 25.185398,-28.67446 16.130493,-9.60571 35.435959,-15.80867 54.317572,-12.61687 11.96555,-8.63697 26.2693,-15.22482 41.32681,-14.66197 6.723,0.20143 13.34261,1.76456 19.57361,4.2517 24.24162,-18.19963 52.91686,-32.92604 83.81065,-33.66242 2.38378,-2.65633 5.10756,-4.98266 7.67693,-7.45445 -1.93586,-0.50245 -3.5436,1.13827 -5.38374,1.42932 -17.35041,4.13168 -35.29579,7.10061 -53.16433,5.33913 -11.18348,-1.22276 -22.78878,-4.57789 -30.9704,-12.68531 -7.18677,-6.95652 -10.1459,-17.33683 -9.27801,-27.13709 z"
     id="path4"
     inkscape:connector-curvature="0"
     sodipodi:nodetypes="ccccccccccccccccccccccccccccccccccccc" /></svg>