<?xml version="1.0" encoding="UTF-8" standalone="no"?>
<!-- Generator: Adobe Illustrator 19.0.0, SVG Export Plug-In . SVG Version: 6.00 Build 0)  -->

<svg
   xmlns:dc="http://purl.org/dc/elements/1.1/"
   xmlns:cc="http://creativecommons.org/ns#"
   xmlns:rdf="http://www.w3.org/1999/02/22-rdf-syntax-ns#"
   xmlns:svg="http://www.w3.org/2000/svg"
   xmlns="http://www.w3.org/2000/svg"
   xmlns:sodipodi="http://sodipodi.sourceforge.net/DTD/sodipodi-0.dtd"
   xmlns:inkscape="http://www.inkscape.org/namespaces/inkscape"
   version="1.1"
   id="Capa_1"
   x="0px"
   y="0px"
   viewBox="0 0 490.025 490.025"
   style="enable-background:new 0 0 490.025 490.025;"
   xml:space="preserve"
   sodipodi:docname="wheat.svg"
   inkscape:version="0.92.2 5c3e80d, 2017-08-06"
   inkscape:export-filename="/Users/karelvervaeke/work/personal/machikoro/public/assets/wheat.png"
   inkscape:export-xdpi="4.7018008"
   inkscape:export-ydpi="4.7018008"><metadata
     id="metadata65"><rdf:RDF><cc:Work
         rdf:about=""><dc:format>image/svg+xml</dc:format><dc:type
           rdf:resource="http://purl.org/dc/dcmitype/StillImage" /><dc:title></dc:title></cc:Work></rdf:RDF></metadata><defs
     id="defs63" /><sodipodi:namedview
     pagecolor="#ffffff"
     bordercolor="#666666"
     borderopacity="1"
     objecttolerance="10"
     gridtolerance="10"
     guidetolerance="10"
     inkscape:pageopacity="0"
     inkscape:pageshadow="2"
     inkscape:window-width="723"
     inkscape:window-height="480"
     id="namedview61"
     showgrid="false"
     inkscape:zoom="0.48160809"
     inkscape:cx="245.0125"
     inkscape:cy="245.0125"
     inkscape:window-x="0"
     inkscape:window-y="0"
     inkscape:window-maximized="0"
     inkscape:current-layer="Capa_1" /><g
     id="g28"><g
       id="g26"><g
         id="g24"><path
           d="M90.313,406.025c42.4,42.4,110.8,42.4,152.8,0C201.113,363.725,132.712,363.725,90.313,406.025z"
           id="path2" /><path
           d="M84.112,246.725c-42.4,42.4-42.4,110.8,0,152.8C126.012,357.125,126.012,288.625,84.112,246.725z"
           id="path4" /><path
           d="M157.912,338.425c42,42.4,110.4,42.4,152.8,0C268.313,296.025,199.912,296.025,157.912,338.425z"
           id="path6" /><path
           d="M151.313,179.025c-42.4,42.4-42.4,110.8,0,152.8C193.712,289.825,193.712,221.425,151.313,179.025z"
           id="path8" /><path
           d="M282.713,207.025c59.9,0,108.1-48.6,108.1-108.1C330.913,98.925,282.713,147.525,282.713,207.025z"
           id="path10" /><path
           d="M225.212,271.125c42.4,42.4,110.8,42.4,152.8,0C336.013,228.825,267.513,228.825,225.212,271.125z"
           id="path12" /><path
           d="M219.012,111.825c-42.4,42.4-42.4,110.8,0,152.8C260.913,222.225,260.913,153.725,219.012,111.825z"
           id="path14" /><path
           d="M486.813,2.925c-3.9-3.9-9.7-3.9-13.6,0l-59.1,59.5c-3.9,3.9-3.9,9.7,0,13.6c1.9,1.9,7.9,5,13.2,0l59.5-59.5     C490.713,12.625,490.713,6.825,486.813,2.925z"
           id="path16" /><path
           d="M458.013,157.625l-71.5,71.5c-3.9,3.9-3.9,9.7,0,13.6c1.9,1.9,7.7,5.2,13.2,0l71.5-71.5c3.9-3.9,3.9-9.7,0-13.6     C467.713,153.725,461.513,153.725,458.013,157.625z"
           id="path18" /><path
           d="M260.513,103.225l71.5-71.5c3.9-3.9,3.9-9.7,0-13.6s-9.7-3.9-13.6,0l-71.1,71.9c-3.9,3.9-3.9,9.7,0,13.6     C249.312,105.225,254.912,108.125,260.513,103.225z"
           id="path20" /><path
           d="M78.212,436.425c-2.3-0.4-7.8-3.1-14.4-9.7s-8.9-12.1-9.7-14.4c1.9-3.5,1.6-8.6-1.6-11.7c-3.9-3.9-9.7-3.9-13.6,0     c-2.7,2.7-7,9.3-1.9,21c1.6,3.5,3.9,7.4,6.6,10.9l-40.4,41.2c-3.9,3.9-3.9,9.7,0,13.6c1.9,1.9,4.3,2.7,6.6,2.7s4.7-0.8,6.6-2.7     l41.2-41.2c3.5,2.7,7.4,5.1,10.9,6.6c11.6,5.4,19.4,0,21-1.9c3.9-3.9,3.9-9.7,0-13.6     C86.813,434.425,81.712,434.025,78.212,436.425z"
           id="path22" /></g></g></g><g
     id="g30" /><g
     id="g32" /><g
     id="g34" /><g
     id="g36" /><g
     id="g38" /><g
     id="g40" /><g
     id="g42" /><g
     id="g44" /><g
     id="g46" /><g
     id="g48" /><g
     id="g50" /><g
     id="g52" /><g
     id="g54" /><g
     id="g56" /><g
     id="g58" /></svg>